<?xml version="1.0" standalone="no"?>
<!DOCTYPE svg PUBLIC "-//W3C//DTD SVG 20010904//EN"
 "http://www.w3.org/TR/2001/REC-SVG-20010904/DTD/svg10.dtd">
<svg version="1.0" xmlns="http://www.w3.org/2000/svg"
 width="142.000000pt" height="142.000000pt" viewBox="0 0 142.000000 142.000000"
 preserveAspectRatio="xMidYMid meet">
<metadata>
Created by potrace 1.11, written by Peter Selinger 2001-2013
</metadata>
<g transform="translate(0.000000,142.000000) scale(0.100000,-0.100000)"
fill="#000000" stroke="none">
<path d="M648 1115 c-7 -8 3 -54 13 -61 14 -8 11 -44 -7 -91 -15 -39 -20 -43
-83 -62 -178 -54 -346 -231 -376 -396 -4 -26 -17 -48 -36 -65 -31 -25 -55 -95
-38 -106 22 -13 5 -24 -41 -24 -47 0 -50 -2 -50 -25 l0 -25 653 0 c456 0 656
3 664 11 13 13 5 49 -11 49 -6 0 -5 4 3 9 9 6 14 29 14 70 1 44 4 61 14 61 18
0 17 17 -2 24 -16 6 -22 66 -6 66 12 0 33 55 29 77 -2 10 -8 18 -15 18 -18 0
-20 6 -27 83 -4 40 -11 83 -15 95 -9 22 -12 4 -25 -133 -3 -25 -5 -46 -5 -48
-1 -2 -5 -1 -10 3 -17 10 -21 -11 -7 -31 11 -14 11 -23 4 -32 -8 -9 -8 -16 0
-24 15 -15 16 -78 2 -78 -7 0 -7 -6 0 -19 20 -38 6 -84 -15 -50 -4 5 -17 14
-30 19 -15 6 -26 20 -30 42 -4 18 -25 69 -46 113 -78 162 -250 302 -392 321
-51 7 -55 12 -78 87 -7 24 -5 29 14 37 22 9 22 9 1 9 -26 1 -55 31 -57 60 -1
23 -1 23 -9 16z"/>
</g>
</svg>
